<?xml version="1.0" encoding="UTF-8" standalone="no"?>
<svg width="72px" height="72px" viewBox="0 0 72 72" version="1.1" xmlns="http://www.w3.org/2000/svg" xmlns:xlink="http://www.w3.org/1999/xlink">
    <!-- Generator: sketchtool 42 (36781) - http://www.bohemiancoding.com/sketch -->
    <title>05AE3AD9-CDB2-4F7C-9EC6-C5B336613105</title>
    <desc>Created with sketchtool.</desc>
    <defs>
        <linearGradient x1="0%" y1="0%" x2="100%" y2="100%" id="linearGradient-1">
            <stop stop-color="#2FB9FF" offset="0%"></stop>
            <stop stop-color="#498EFF" offset="100%"></stop>
        </linearGradient>
        <circle id="path-2" cx="36" cy="36" r="36"></circle>
    </defs>
    <g id="Page-1" stroke="none" stroke-width="1" fill="none" fill-rule="evenodd">
        <g id="website-1440" transform="translate(-684.000000, -1512.000000)">
            <g id="benefits" transform="translate(0.000000, 1271.000000)">
                <rect id="bg-white" fill="#FFFFFF" x="0" y="0" width="1440" height="644"></rect>
                <g id="build-relationships" transform="translate(611.000000, 229.000000)">
                    <g id="ic-handshake" transform="translate(61.000000, 0.000000)">
                        <g id="Group-2-Copy" transform="translate(12.000000, 12.000000)">
                            <mask id="mask-3" fill="white">
                                <use xlink:href="#path-2"></use>
                            </mask>
                            <use id="Mask" fill="url(#linearGradient-1)" xlink:href="#path-2"></use>
                            <g mask="url(#mask-3)">
                                <g transform="translate(35.783766, 26.720286) rotate(-315.000000) translate(-35.783766, -26.720286) translate(4.823766, -4.479714)">
                                    <rect id="Rectangle-Copy-5" fill="#D8D8D8" transform="translate(41.826882, 39.530504) rotate(-270.000000) translate(-41.826882, -39.530504) " x="22.9637782" y="26.4083449" width="37.7262071" height="26.244318"></rect>
                                    <g id="right-hand-cuffcuff" stroke-width="1" fill="none" transform="translate(26.572372, -0.000000)">
                                        <rect id="Rectangle-Copy-3" fill="#1F60C0" transform="translate(15.418537, 9.021484) rotate(-270.000000) translate(-15.418537, -9.021484) " x="6.3970525" y="-6.3970525" width="18.0429686" height="30.8370736" rx="2"></rect>
                                        <rect id="Rectangle-Copy-4" fill-opacity="0.400000006" fill="#FFFFFF" transform="translate(15.254510, 19.355184) rotate(-270.000000) translate(-15.254510, -19.355184) " x="13.9422939" y="5.57691757" width="2.6244318" height="27.5565339"></rect>
                                        <ellipse id="Oval-4-Copy" fill="#FFFFFF" cx="27.3697923" cy="14.5756873" rx="1.47624289" ry="1.47624289"></ellipse>
                                    </g>
                                    <g id="left-hand-cuff" stroke-width="1" fill="none" transform="translate(-0.000000, 28.868750)">
                                        <rect id="Rectangle" fill="#FFFFFF" x="0" y="0" width="18.0429686" height="30.8370736" rx="2"></rect>
                                        <ellipse id="Oval-4" fill="#1F60C0" cx="14.5756873" cy="27.3697923" rx="1.47624289" ry="1.47624289"></ellipse>
                                        <rect id="Rectangle-Copy" fill-opacity="0.400000006" fill="#FFFFFF" x="18.0429686" y="1.64026987" width="2.6244318" height="27.5565339"></rect>
                                    </g>
                                    <path d="M58.3936075,57.4094455 L20.6674004,57.4094455 L20.6674004,31.1651276 L58.3936071,31.1651276 C60.2053995,31.1651276 61.6741472,32.6338753 61.6741472,34.4456673 C61.6741472,36.2574594 60.2053995,37.7262071 58.3936075,37.7262071 C60.2053995,37.7262071 61.6741472,39.1949547 61.6741472,41.0067468 C61.6741472,42.8185389 60.2053995,44.2872866 58.3936075,44.2872866 C60.2053995,44.2872866 61.6741472,45.7560342 61.6741472,47.5678263 C61.6741472,49.3796184 60.2053995,50.8483661 58.3936075,50.8483661 C60.2053995,50.8483661 61.6741472,52.3171137 61.6741472,54.1289058 C61.6741472,55.9406979 60.2053995,57.4094455 58.3936075,57.4094455 Z" id="left-hanf" fill="#1F60C0"></path>
                                    <path d="M35.2658023,31.1651276 L54.9490407,31.1651276 L54.9490407,20.6674004 L28.7047228,20.6674004 L28.7047228,30.8370736 L28.7047228,41.3348008 C28.7047228,43.1465929 30.1734704,44.6153405 31.9852625,44.6153405 C33.7970546,44.6153405 35.2658023,43.1465929 35.2658023,41.3348008 L35.2658023,31.1651276 Z" id="right-hand-thumb" fill="#FFFFFF"></path>
                                    <g id="right-hand-fingers" stroke-width="1" fill="none" transform="translate(28.540696, 51.504474)">
                                        <path d="M0.164026987,6.88913347 C0.164026987,8.70092554 1.63277466,10.1696732 3.44456673,10.1696732 C5.25635881,10.1696732 6.72510648,8.70092554 6.72510648,6.88913347 L6.72510648,3.28053975 C6.72510648,1.46874767 5.25635881,3.97692786e-14 3.44456673,3.94364578e-14 C1.63277466,3.9103637e-14 0.164026987,1.46874767 0.164026987,3.28053975 L0.164026987,6.88913347 Z" id="Combined-Shape" fill="#FFFFFF"></path>
                                        <path d="M6.72510648,6.88913347 C6.72510648,8.70092554 8.19385415,10.1696732 10.0056462,10.1696732 C11.8174383,10.1696732 13.286186,8.70092554 13.286186,6.88913347 L13.286186,3.28053975 C13.286186,1.46874767 11.8174383,5.38557883e-14 10.0056462,5.35229675e-14 C8.19385415,5.31901467e-14 6.72510648,1.46874767 6.72510648,3.28053975 L6.72510648,6.88913347 Z" id="Combined-Shape-Copy" fill="#FFFFFF"></path>
                                        <path d="M13.286186,6.88913347 C13.286186,8.70092554 14.7549336,10.1696732 16.5667257,10.1696732 C18.3785178,10.1696732 19.8472655,8.70092554 19.8472655,6.88913347 L19.8472655,3.28053975 C19.8472655,1.46874767 18.3785178,-1.48004035e-14 16.5667257,-1.51332243e-14 C14.7549336,-1.54660451e-14 13.286186,1.46874767 13.286186,3.28053975 L13.286186,6.88913347 Z" id="Combined-Shape-Copy-2" fill="#FFFFFF"></path>
                                        <path d="M19.8472655,6.88913347 C19.8472655,8.70092554 21.3160131,10.1696732 23.1278052,10.1696732 C24.9395973,10.1696732 26.4083449,8.70092554 26.4083449,6.88913347 L26.4083449,3.28053975 C26.4083449,1.46874767 24.9395973,1.3372616e-14 23.1278052,1.30397952e-14 C21.3160131,1.27069743e-14 19.8472655,1.46874767 19.8472655,3.28053975 L19.8472655,6.88913347 Z" id="Combined-Shape-Copy-3" fill="#FFFFFF"></path>
                                    </g>
                                </g>
                            </g>
                        </g>
                    </g>
                </g>
            </g>
        </g>
    </g>
</svg>