<svg xmlns="http://www.w3.org/2000/svg" width="212" height="40" viewBox="0 0 212 40"><path fill="currentColor" fill-rule="evenodd" d="M35.524 10.29l-16.214-9.499c-.558-.322-1.468-.322-2.025 0l-16.217 9.499c-.562.331-1.021 1.134-1.021 1.791v18.986c0 .657.459 1.465 1.021 1.791l11.028 6.457.232.139.671.391v-3.515h-.707v-2.432h12.01v2.432h-.707v3.515l.671-.391.236-.143 11.021-6.453c.56-.326 1.02-1.134 1.02-1.791v-18.986c0-.657-.46-1.461-1.02-1.791zm-11.928 23.217h-10.597s.604-5.399-2.692-8.742c0 0 5.86-7.397 7.544-12.544h.27v11.469c-.471.084-.824.498-.824.995 0 .562.447 1.015 1.001 1.015.553 0 1-.453 1-1.015 0-.497-.357-.912-.824-.995v-11.469h.271c1.679 5.148 7.539 12.544 7.539 12.544-3.297 3.344-2.689 8.742-2.689 8.742zm23.509-17.75h2.342c1.339 0 2.383.367 3.132 1.1.75.733 1.124 1.833 1.124 3.299 0 .733-.096 1.38-.288 1.941-.192.562-.468 1.03-.83 1.405-.362.376-.799.659-1.312.849-.513.19-1.095.285-1.747.285h-2.423v-8.879zm2.235 7.603h-.683v-6.327h.683c.883 0 1.566.249 2.048.747s.723 1.29.723 2.376c0 1.095-.239 1.903-.716 2.423-.478.521-1.162.781-2.055.781zm9.343-7.603h1.553v8.879h-1.553v-8.879zm6.532 4.467c0-.724.107-1.373.321-1.948.214-.575.509-1.061.884-1.46.375-.398.816-.701 1.325-.91.509-.208 1.057-.312 1.646-.312.303 0 .584.032.843.095s.495.147.709.251c.214.104.41.224.589.36.178.136.335.276.468.421l-.856.977c-.223-.217-.467-.394-.73-.53-.263-.136-.6-.203-1.011-.203-.393 0-.748.075-1.064.224-.317.149-.589.362-.817.638-.228.276-.404.613-.529 1.011-.125.398-.187.846-.187 1.344 0 1.014.225 1.808.676 2.383.45.575 1.118.862 2.001.862.25 0 .486-.034.709-.102.223-.068.406-.165.549-.292v-1.914h-1.66v-1.29h3.052v3.91c-.303.299-.701.55-1.191.754-.491.204-1.04.306-1.646.306-.58 0-1.12-.1-1.62-.299-.5-.199-.933-.493-1.298-.882-.366-.389-.652-.869-.857-1.439-.205-.57-.308-1.222-.308-1.955zm12.073-4.467h1.553v8.879h-1.553v-8.879zm8.754 1.33h-2.53v-1.33h6.612v1.33h-2.53v7.548h-1.553v-7.548zm12.288 5.145h-2.945l-.683 2.403h-1.579l2.851-8.879h1.82l2.851 8.879h-1.633l-.683-2.403zm-.348-1.235h-2.235l.308-1.086c.143-.471.276-.953.402-1.446l.375-1.486h.053l.381 1.48c.129.498.265.982.408 1.453l.308 1.086zm6.96-5.24h1.553v7.549h3.641v1.33h-5.194v-8.879zm15.433 4.467c0-.724.105-1.373.314-1.948.21-.575.498-1.061.864-1.46.366-.398.794-.701 1.285-.91.491-.208 1.017-.312 1.58-.312.535 0 1.015.113 1.439.339.424.226.774.489 1.051.788l-.87.977c-.223-.226-.462-.405-.716-.536-.254-.131-.551-.197-.89-.197-.366 0-.698.075-.997.224-.299.149-.558.362-.776.638-.219.276-.388.613-.509 1.011-.12.398-.18.846-.18 1.344 0 1.014.216 1.808.649 2.383.433.575 1.019.862 1.76.862.392 0 .734-.077 1.024-.231.29-.154.56-.371.81-.652l.87.964c-.357.416-.763.735-1.218.957-.455.222-.96.333-1.512.333-.562 0-1.084-.1-1.566-.299-.482-.199-.902-.493-1.258-.882-.357-.389-.638-.869-.843-1.439-.206-.57-.308-1.222-.308-1.955zm11.377-4.467h1.553v7.549h3.641v1.33h-5.194v-8.879zm9.932 0h1.553v8.879h-1.553v-8.879zm6.987 0h2.945c.482 0 .926.045 1.332.135.406.091.756.244 1.051.462.295.217.526.5.696.848.169.349.254.781.254 1.297 0 .489-.085.914-.254 1.276-.17.362-.404.663-.703.903-.299.24-.651.416-1.058.529-.406.113-.845.17-1.318.17h-1.392v3.258h-1.553v-8.879zm2.825 4.358h-1.272v-3.096h1.272c.643 0 1.124.107 1.446.319.321.213.482.6.482 1.161 0 1.077-.643 1.616-1.927 1.616zm8.312-4.358h2.798c.455 0 .872.038 1.251.115.38.077.71.199.991.367.281.167.499.392.656.672.156.281.234.625.234 1.032 0 .426-.123.819-.368 1.181-.245.362-.622.611-1.131.747v.054c.633.109 1.118.338 1.452.686.335.349.502.822.502 1.419 0 .443-.085.828-.255 1.154-.17.326-.404.597-.703.814-.299.217-.654.378-1.064.482-.41.104-.857.156-1.338.156h-3.025v-8.879zm2.664 3.679c.615 0 1.059-.113 1.332-.339.272-.226.408-.548.408-.964 0-.407-.143-.701-.428-.882-.285-.181-.714-.271-1.285-.271h-1.138v2.457h1.111zm.201 3.978h-1.312v-2.851h1.312c.661 0 1.16.111 1.499.333.339.222.509.563.509 1.025 0 .507-.174.882-.522 1.127-.348.244-.844.367-1.486.367zm11.739 1.385c-.571 0-1.093-.107-1.566-.319-.473-.212-.879-.52-1.218-.923-.34-.403-.602-.889-.79-1.46-.187-.57-.281-1.217-.281-1.941 0-.715.094-1.355.281-1.921.188-.566.45-1.043.79-1.433.339-.389.745-.687 1.218-.896.473-.208.995-.312 1.566-.312.571 0 1.093.104 1.566.312.473.208.881.507 1.225.896.344.389.609.867.796 1.433.187.565.281 1.206.281 1.921 0 .724-.094 1.371-.281 1.941-.187.57-.453 1.057-.796 1.46s-.752.711-1.225.923c-.473.213-.995.319-1.566.319zm0-1.371c-.348 0-.66-.077-.937-.231-.277-.154-.513-.373-.709-.658-.196-.285-.348-.629-.455-1.032-.107-.403-.161-.853-.161-1.351 0-.995.203-1.776.609-2.342.406-.565.957-.848 1.653-.848.696 0 1.247.283 1.653.848.406.566.609 1.347.609 2.342 0 .498-.053.948-.161 1.351-.107.403-.259.747-.455 1.032-.197.285-.433.505-.71.658-.276.154-.589.231-.937.231zm12.77-1.195h-2.945l-.683 2.403h-1.579l2.851-8.879h1.821l2.851 8.879h-1.633l-.682-2.403zm-.348-1.235h-2.235l.308-1.086c.143-.471.276-.953.401-1.446l.375-1.486h.053l.382 1.48c.129.498.265.982.408 1.453l.307 1.086zm11.739 3.638l-1.887-3.475h-1.339v3.475h-1.553v-8.879h2.958c.455 0 .879.045 1.271.135.392.091.732.238 1.017.441.286.204.511.473.676.808.165.335.248.751.248 1.249 0 .679-.159 1.227-.475 1.643-.317.416-.739.715-1.265.896l2.088 3.706h-1.74zm-3.226-4.724v-2.892h1.245c.598 0 1.055.1 1.372.299.316.199.475.557.475 1.073 0 .507-.159.887-.475 1.14-.317.254-.774.38-1.372.38h-1.245zm9.678-4.154h2.342c1.339 0 2.383.367 3.132 1.1.75.733 1.125 1.833 1.125 3.299 0 .733-.096 1.38-.288 1.941-.192.562-.468 1.03-.83 1.405-.361.376-.799.659-1.312.849-.513.19-1.096.285-1.747.285h-2.423v-8.879zm2.236 7.603c.892 0 1.577-.26 2.054-.781.477-.52.716-1.328.716-2.423 0-1.086-.241-1.878-.723-2.376s-1.164-.747-2.048-.747h-.683v6.327h.683z"/></svg>