<?xml version="1.0" encoding="UTF-8" standalone="no"?>
<svg width="72px" height="72px" viewBox="0 0 72 72" version="1.1" xmlns="http://www.w3.org/2000/svg" xmlns:xlink="http://www.w3.org/1999/xlink">
    <!-- Generator: sketchtool 42 (36781) - http://www.bohemiancoding.com/sketch -->
    <title>2DB820CB-8E5F-457B-BEB0-A4451721EB72</title>
    <desc>Created with sketchtool.</desc>
    <defs>
        <linearGradient x1="0%" y1="0%" x2="100%" y2="100%" id="linearGradient-1">
            <stop stop-color="#2FB9FF" offset="0%"></stop>
            <stop stop-color="#498EFF" offset="100%"></stop>
        </linearGradient>
        <circle id="path-2" cx="36" cy="36" r="36"></circle>
    </defs>
    <g id="Page-1" stroke="none" stroke-width="1" fill="none" fill-rule="evenodd">
        <g id="website-1440" transform="translate(-1003.000000, -1512.000000)">
            <g id="benefits" transform="translate(0.000000, 1271.000000)">
                <rect id="bg-white" fill="#FFFFFF" x="0" y="0" width="1440" height="644"></rect>
                <g id="compliance" transform="translate(930.000000, 229.000000)">
                    <g id="ic-compliance" transform="translate(61.000000, 0.000000)">
                        <g id="ticks" transform="translate(12.000000, 12.000000)">
                            <mask id="mask-3" fill="white">
                                <use xlink:href="#path-2"></use>
                            </mask>
                            <use id="Mask" fill="url(#linearGradient-1)" xlink:href="#path-2"></use>
                            <g id="Group-5" mask="url(#mask-3)">
                                <g transform="translate(18.720000, 17.280000)">
                                    <g id="Group">
                                        <ellipse id="Oval-2" fill="#1F60C0" cx="7.2" cy="8.64" rx="7.2" ry="7.2"></ellipse>
                                        <path d="M14.4697176,2.11114086 L9.23067146,12.1886929 C8.86451146,12.8937169 8.00254223,13.1645809 7.30574839,12.7942129 C6.974973,12.6191089 6.744973,12.3292369 6.62933608,11.9996209 L3.89339762,7.34136486 C3.69198839,6.99907686 4.07796377,6.39240486 4.75465916,5.98690086 C5.43163762,5.58010086 6.14315146,5.52782886 6.34399454,5.87069286 L7.90983454,8.53570086 L11.9458038,0.771220855 C12.3121053,0.0661968552 13.1736499,-0.204523145 13.8704438,0.165844855 C14.5675207,0.534916855 14.8355945,1.40611686 14.4697176,2.11114086 Z" id="Shape" fill="#FFFFFF"></path>
                                    </g>
                                    <g id="Group-3" transform="translate(0.000000, 20.160000)">
                                        <ellipse id="Oval-2-Copy-2" fill="#FFFFFF" cx="7.2" cy="8.64" rx="7.2" ry="7.2"></ellipse>
                                        <path d="M14.4697176,2.11114086 L9.23067146,12.1886929 C8.86451146,12.8937169 8.00254223,13.1645809 7.30574839,12.7942129 C6.974973,12.6191089 6.744973,12.3292369 6.62933608,11.9996209 L3.89339762,7.34136486 C3.69198839,6.99907686 4.07796377,6.39240486 4.75465916,5.98690086 C5.43163762,5.58010086 6.14315146,5.52782886 6.34399454,5.87069286 L7.90983454,8.53570086 L11.9458038,0.771220855 C12.3121053,0.0661968552 13.1736499,-0.204523145 13.8704438,0.165844855 C14.5675207,0.534916855 14.8355945,1.40611686 14.4697176,2.11114086 Z" id="Shape-Copy-2" fill="#1F60C0"></path>
                                    </g>
                                    <g id="Group-2" transform="translate(20.160000, 0.000000)">
                                        <ellipse id="Oval-2-Copy" fill="#FFFFFF" cx="7.2" cy="8.64" rx="7.2" ry="7.2"></ellipse>
                                        <path d="M14.4697176,2.11114086 L9.23067146,12.1886929 C8.86451146,12.8937169 8.00254223,13.1645809 7.30574839,12.7942129 C6.974973,12.6191089 6.744973,12.3292369 6.62933608,11.9996209 L3.89339762,7.34136486 C3.69198839,6.99907686 4.07796377,6.39240486 4.75465916,5.98690086 C5.43163762,5.58010086 6.14315146,5.52782886 6.34399454,5.87069286 L7.90983454,8.53570086 L11.9458038,0.771220855 C12.3121053,0.0661968552 13.1736499,-0.204523145 13.8704438,0.165844855 C14.5675207,0.534916855 14.8355945,1.40611686 14.4697176,2.11114086 Z" id="Shape-Copy" fill="#1F60C0"></path>
                                    </g>
                                    <g id="Group-4" transform="translate(20.160000, 20.160000)">
                                        <ellipse id="Oval-2-Copy-3" fill="#1F60C0" cx="7.2" cy="8.64" rx="7.2" ry="7.2"></ellipse>
                                        <path d="M14.4697176,2.11114086 L9.23067146,12.1886929 C8.86451146,12.8937169 8.00254223,13.1645809 7.30574839,12.7942129 C6.974973,12.6191089 6.744973,12.3292369 6.62933608,11.9996209 L3.89339762,7.34136486 C3.69198839,6.99907686 4.07796377,6.39240486 4.75465916,5.98690086 C5.43163762,5.58010086 6.14315146,5.52782886 6.34399454,5.87069286 L7.90983454,8.53570086 L11.9458038,0.771220855 C12.3121053,0.0661968552 13.1736499,-0.204523145 13.8704438,0.165844855 C14.5675207,0.534916855 14.8355945,1.40611686 14.4697176,2.11114086 Z" id="Shape-Copy-3" fill="#FFFFFF"></path>
                                    </g>
                                </g>
                            </g>
                        </g>
                    </g>
                </g>
            </g>
        </g>
    </g>
</svg>